Coordinates
nRows=288
nColumns=2
inDegrees=yes
endheader
time	ankle_angle_r	
6.3871	  5.005024	
6.42036	  5.040354	
6.45363	  5.066965	
6.4869	  5.082255	
6.52016	  5.088300	
6.55343	  5.087312	
6.58669	  5.083352	
6.61996	  5.082789	
6.65323	  5.087860	
6.68649	  5.097654	
6.71976	  5.111326	
6.75302	  5.125306	
6.78629	  5.135720	
6.81956	  5.141883	
6.85282	  5.146588	
6.88609	  5.155883	
6.91935	  5.171136	
6.95262	  5.182191	
6.98589	  5.180063	
7.01915	  5.172349	
7.05242	  5.173005	
7.08569	  5.183851	
7.11895	  5.195110	
7.15222	  5.196937	
7.18548	  5.190211	
7.21875	  5.185736	
7.25202	  5.188175	
7.28528	  5.191871	
7.31855	  5.191571	
7.35181	  5.184404	
7.38508	  5.170585	
7.41835	  5.154104	
7.45161	  5.137643	
7.48488	  5.124435	
7.51815	  5.115194	
7.55141	  5.102856	
7.58468	  5.086369	
7.61794	  5.072410	
7.65121	  5.060481	
7.68448	  5.049743	
7.71774	  5.045466	
7.75101	  5.047959	
7.78427	  5.052698	
7.81754	  5.057239	
7.85081	  5.062041	
7.88407	  5.070516	
7.91734	  5.084343	
7.9506	  5.099041	
7.98387	  5.109699	
8.01714	  5.116975	
8.0504	  5.126701	
8.08367	  5.144446	
8.11694	  5.166141	
8.1502	  5.181221	
8.18347	  5.187780	
8.21673	  5.191604	
8.25	  5.195450	
8.28327	  5.199663	
8.31653	  5.203240	
8.3498	  5.205532	
8.38306	  5.210674	
8.41633	  5.219175	
8.4496	  5.225145	
8.48286	  5.229992	
8.51613	  5.238335	
8.5494	  5.243828	
8.58266	  5.239876	
8.61593	  5.231450	
8.64919	  5.225695	
8.68246	  5.225141	
8.71573	  5.227369	
8.74899	  5.226115	
8.78226	  5.221067	
8.81552	  5.217134	
8.84879	  5.213369	
8.88206	  5.209083	
8.91532	  5.206608	
8.94859	  5.197393	
8.98185	  5.168865	
9.01512	  5.127702	
9.04839	  5.095863	
9.08165	  5.083927	
9.11492	  5.081571	
9.14819	  5.076671	
9.18145	  5.071911	
9.21472	  5.073151	
9.24798	  5.075705	
9.28125	  5.072651	
9.31452	  5.063290	
9.34778	  5.050275	
9.38105	  5.035773	
9.41431	  5.021120	
9.44758	  5.009792	
9.48085	  5.005379	
9.51411	  5.008240	
9.54738	  5.019218	
9.58065	  5.036572	
9.61391	  5.052726	
9.64718	  5.065264	
9.68044	  5.076579	
9.71371	  5.080251	
9.74698	  5.068007	
9.78024	  5.045239	
9.81351	  5.024517	
9.84677	  5.011695	
9.88004	  5.005005	
9.91331	  5.000236	
9.94657	  4.996616	
9.97984	  4.997646	
10.0131	  5.001381	
10.0464	  5.000420	
10.0796	  4.994549	
10.1129	  4.990966	
10.1462	  4.995952	
10.1794	  5.010341	
10.2127	  5.028353	
10.246	  5.047090	
10.2792	  5.072874	
10.3125	  5.106759	
10.3458	  5.137262	
10.379	  5.155945	
10.4123	  5.165335	
10.4456	  5.171083	
10.4788	  5.176703	
10.5121	  5.182305	
10.5454	  5.186727	
10.5786	  5.190639	
10.6119	  5.193414	
10.6452	  5.193995	
10.6784	  5.195500	
10.7117	  5.200600	
10.745	  5.207042	
10.7782	  5.210583	
10.8115	  5.209916	
10.8448	  5.209386	
10.878	  5.212008	
10.9113	  5.213994	
10.9446	  5.213753	
10.9778	  5.215667	
11.0111	  5.221947	
11.0444	  5.229380	
11.0776	  5.230559	
11.1109	  5.218051	
11.1442	  5.194212	
11.1774	  5.170632	
11.2107	  5.156628	
11.244	  5.155539	
11.2772	  5.162077	
11.3105	  5.163765	
11.3437	  5.155407	
11.377	  5.138852	
11.4103	  5.116916	
11.4435	  5.102280	
11.4768	  5.105194	
11.5101	  5.112820	
11.5433	  5.108585	
11.5766	  5.096158	
11.6099	  5.088812	
11.6431	  5.092484	
11.6764	  5.102761	
11.7097	  5.112437	
11.7429	  5.123310	
11.7762	  5.140062	
11.8095	  5.154974	
11.8427	  5.160028	
11.876	  5.162970	
11.9093	  5.175306	
11.9425	  5.198589	
11.9758	  5.222779	
12.0091	  5.233276	
12.0423	  5.226529	
12.0756	  5.212812	
12.1089	  5.203569	
12.1421	  5.204424	
12.1754	  5.213255	
12.2087	  5.222175	
12.2419	  5.226698	
12.2752	  5.227347	
12.3085	  5.225117	
12.3417	  5.221152	
12.375	  5.214657	
12.4083	  5.205273	
12.4415	  5.198109	
12.4748	  5.196845	
12.5081	  5.197310	
12.5413	  5.191675	
12.5746	  5.175404	
12.6079	  5.153484	
12.6411	  5.135405	
12.6744	  5.121769	
12.7077	  5.109101	
12.7409	  5.100553	
12.7742	  5.095828	
12.8075	  5.085619	
12.8407	  5.067032	
12.874	  5.050070	
12.9073	  5.044707	
12.9405	  5.050225	
12.9738	  5.056010	
13.0071	  5.051467	
13.0403	  5.037384	
13.0736	  5.023286	
13.1069	  5.014536	
13.1401	  5.008583	
13.1734	  5.005221	
13.2067	  5.012795	
13.2399	  5.034275	
13.2732	  5.059075	
13.3065	  5.081807	
13.3397	  5.107012	
13.373	  5.130237	
13.4062	  5.143121	
13.4395	  5.150073	
13.4728	  5.158921	
13.506	  5.169034	
13.5393	  5.175454	
13.5726	  5.175550	
13.6058	  5.174312	
13.6391	  5.179838	
13.6724	  5.189629	
13.7056	  5.193609	
13.7389	  5.189891	
13.7722	  5.184574	
13.8054	  5.182189	
13.8387	  5.183820	
13.872	  5.187648	
13.9052	  5.191145	
13.9385	  5.193762	
13.9718	  5.194002	
14.005	  5.187712	
14.0383	  5.171050	
14.0716	  5.147317	
14.1048	  5.130538	
14.1381	  5.128972	
14.1714	  5.131971	
14.2046	  5.127210	
14.2379	  5.113863	
14.2712	  5.095164	
14.3044	  5.077750	
14.3377	  5.073544	
14.371	  5.086454	
14.4042	  5.103066	
14.4375	  5.105805	
14.4708	  5.091319	
14.504	  5.071939	
14.5373	  5.058795	
14.5706	  5.050186	
14.6038	  5.044981	
14.6371	  5.053994	
14.6704	  5.084502	
14.7036	  5.125427	
14.7369	  5.156775	
14.7702	  5.167982	
14.8034	  5.164469	
14.8367	  5.159079	
14.87	  5.161105	
14.9032	  5.172032	
14.9365	  5.184927	
14.9698	  5.191589	
15.003	  5.192871	
15.0363	  5.194878	
15.0696	  5.201205	
15.1028	  5.213024	
15.1361	  5.225841	
15.1694	  5.231233	
15.2026	  5.230024	
15.2359	  5.230214	
15.2692	  5.233185	
15.3024	  5.236260	
15.3357	  5.238676	
15.369	  5.239094	
15.4022	  5.237163	
15.4355	  5.232604	
15.4687	  5.221294	
15.502	  5.201927	
15.5353	  5.180069	
15.5685	  5.160570	
15.6018	  5.143832	
15.6351	  5.130394	
15.6683	  5.123079	
15.7016	  5.122301	
15.7349	  5.123706	
15.7681	  5.121957	
15.8014	  5.113861	
15.8347	  5.098691	
15.8679	  5.078103	
15.9012	  5.054906	
15.9345	  5.030831	
